<svg width="74" height="38" viewBox="0 0 74 38" fill="none" xmlns="http://www.w3.org/2000/svg">
<path d="M11.328 7.568C12.7147 7.568 13.9093 7.77067 14.912 8.176C15.936 8.56 16.9493 9.168 17.952 10L16.16 11.856C15.3707 11.216 14.6133 10.7573 13.888 10.48C13.1627 10.2027 12.3093 10.064 11.328 10.064C10.1973 10.064 9.152 10.3733 8.192 10.992C7.25333 11.5893 6.48533 12.56 5.888 13.904C5.29067 15.2267 4.992 16.912 4.992 18.96C4.992 22.0533 5.49333 24.3147 6.496 25.744C7.52 27.1733 9.024 27.888 11.008 27.888C12.6293 27.888 14.0267 27.5573 15.2 26.896V20.24H11.296L10.944 17.776H18.208V28.432C15.9253 29.7333 13.5253 30.384 11.008 30.384C8.10667 30.384 5.83467 29.4133 4.192 27.472C2.57067 25.5307 1.76 22.6933 1.76 18.96C1.76 16.5707 2.18667 14.5227 3.04 12.816C3.91467 11.088 5.07733 9.78667 6.528 8.912C8 8.016 9.6 7.568 11.328 7.568Z" fill="#00AAEE"/>
<path d="M26.4275 7.952V30H23.3875V7.952H26.4275ZM45.849 7.952L45.529 10.544H39.417V30H36.377V10.544H30.105V7.952H45.849Z" fill="#77808D"/>
<path fill-rule="evenodd" clip-rule="evenodd" d="M56.6412 24.0297C56.3544 24.4708 56.1875 24.9972 56.1875 25.5625C55.25 26.0312 53.8438 26.0312 53.375 25.5625C52.7802 24.9677 52.9062 24.625 51.5 23.6875C51.1864 23.4784 50.9159 23.4198 50.6933 23.3908C50.5597 23.41 50.4495 23.5061 50.4116 23.6359C50.3741 23.7653 50.4158 23.9055 50.518 23.9936C50.8841 24.2777 51.373 24.7127 51.5 25.0938C51.9688 26.5 52.9062 27.4375 54.3125 27.4375C55.1609 27.4375 55.7638 27.3147 56.1875 27.1577V29.2516C56.1875 29.8895 55.8631 30.4844 55.3264 30.8294C54.7892 31.1744 54.1138 31.2227 53.533 30.9573C49.0194 28.8644 45.875 24.2964 45.875 19C45.875 11.7559 51.7559 5.875 59 5.875C66.2441 5.875 72.125 11.7559 72.125 19C72.125 24.2964 68.9806 28.8644 64.4581 30.9381C63.8839 31.2002 63.2159 31.1523 62.6853 30.8116C62.1542 30.4703 61.8331 29.8825 61.8331 29.2516C61.8125 27.5242 61.8125 25.5625 61.8125 25.5625C61.8125 25.0145 61.6527 24.4825 61.3583 24.0297C64.8763 23.5994 66.5 22.0037 66.5 18.2969C66.5 17.0205 66.0669 15.9602 65.3698 15.1084C65.7317 14.132 65.8227 12.9672 65.6633 11.9716C65.6389 11.8455 65.5644 11.7348 65.4561 11.6655C65.3483 11.5966 65.2166 11.575 65.0919 11.6055C63.8694 11.9078 62.9084 12.3733 62.1978 12.9953C61.145 12.6213 60.0266 12.4375 59 12.4375C57.9734 12.4375 56.855 12.6213 55.8022 12.9953C55.0916 12.3733 54.1306 11.9078 52.9081 11.6055C52.7834 11.575 52.6517 11.5966 52.5439 11.6655C52.4356 11.7348 52.3611 11.8455 52.3367 11.9716C52.1773 12.9672 52.2683 14.132 52.6302 15.1084C51.9331 15.9602 51.5 17.0205 51.5 18.2969C51.5 22.0033 53.1237 23.5989 56.6412 24.0297Z" fill="url(#paint0_linear_17_109)"/>
<path fill-rule="evenodd" clip-rule="evenodd" d="M54.7508 31.075C54.3486 31.1716 53.9197 31.1341 53.533 30.9573C49.0194 28.8644 45.875 24.2964 45.875 19C45.875 11.7559 51.7559 5.875 59 5.875C59.1472 5.875 59.2934 5.87735 59.4383 5.88204C52.3967 6.11454 46.752 11.9031 46.752 19C46.752 24.2964 49.8959 28.8644 54.41 30.9573C54.5206 31.008 54.635 31.0469 54.7508 31.075ZM65.5302 11.7245C65.6727 11.6823 65.8189 11.643 65.9689 11.6055C66.0931 11.575 66.2253 11.5966 66.3331 11.6655C66.4414 11.7348 66.5159 11.8455 66.5398 11.9716C66.6992 12.9672 66.6087 14.132 66.2469 15.1084C66.9439 15.9602 67.377 17.0205 67.377 18.2969C67.377 22.0038 65.7528 23.5994 62.2353 24.0297C62.5292 24.4825 62.6895 25.0145 62.6895 25.5625C62.6895 25.5625 62.6895 27.5242 62.7102 29.2516C62.7102 29.8825 63.0312 30.4703 63.5619 30.8116C63.7377 30.9241 63.9284 31.0052 64.1263 31.053C63.6378 31.172 63.1166 31.0886 62.6853 30.8116C62.1542 30.4703 61.8331 29.8825 61.8331 29.2516C61.8125 27.5242 61.8125 25.5625 61.8125 25.5625C61.8125 25.0145 61.6527 24.4825 61.3583 24.0297C64.8763 23.5994 66.5 22.0038 66.5 18.2969C66.5 17.0205 66.0669 15.9602 65.3698 15.1084C65.7317 14.132 65.8227 12.9672 65.6633 11.9716C65.645 11.8769 65.5981 11.7906 65.5302 11.7245ZM56.1875 27.3714C55.9002 27.4127 55.5692 27.4375 55.1895 27.4375C55.0756 27.4375 54.9645 27.4314 54.8572 27.4192C55.4272 27.3794 55.8608 27.2786 56.1875 27.1577V27.3714ZM51.312 23.5764C51.3622 23.4775 51.4578 23.4072 51.5703 23.3908C51.793 23.4198 52.063 23.4784 52.377 23.6875C53.7833 24.625 53.6567 24.9677 54.252 25.5625C54.4208 25.7313 54.7114 25.8395 55.0578 25.8864C54.3584 25.9703 53.675 25.8625 53.375 25.5625C52.7802 24.9677 52.9063 24.625 51.5 23.6875C51.4353 23.6444 51.373 23.6078 51.312 23.5764ZM59.4383 12.4487C59.5859 12.4412 59.7327 12.4375 59.877 12.4375C60.7002 12.4375 61.5823 12.5556 62.442 12.7956C62.3577 12.8603 62.2761 12.9269 62.1978 12.9953C61.2931 12.6738 60.3402 12.4928 59.4383 12.4487ZM53.3464 11.7245C53.3689 11.7025 53.3937 11.6828 53.4205 11.6655C53.5287 11.5966 53.6605 11.575 53.7852 11.6055C54.8727 11.8745 55.7534 12.273 56.4345 12.7956C56.2222 12.8547 56.0108 12.9213 55.8022 12.9953C55.1788 12.4497 54.3627 12.0245 53.3464 11.7245Z" fill="#617881"/>
<path fill-rule="evenodd" clip-rule="evenodd" d="M50.6689 23.8136C51.0673 24.1239 51.5844 24.6063 51.7222 25.0197C52.1562 26.3209 53.0112 27.2031 54.3125 27.2031C55.1239 27.2031 55.7009 27.0878 56.1064 26.9378C56.1781 26.9116 56.2583 26.9219 56.3216 26.9655C56.3844 27.0095 56.4219 27.0813 56.4219 27.1577C56.4219 27.1577 56.4219 29.2516 56.4219 29.2511C56.4219 29.9692 56.0572 30.6381 55.453 31.0263C54.8488 31.4148 54.0889 31.4688 53.4345 31.1697C48.8403 29.0402 45.6406 24.3906 45.6406 19C45.6406 11.6266 51.6266 5.64062 59 5.64062C66.3734 5.64062 72.3594 11.6266 72.3594 19C72.3594 24.3911 69.1592 29.0406 64.5556 31.1509C63.9087 31.4467 63.1564 31.3928 62.5583 31.0084C61.9606 30.6241 61.5988 29.9622 61.5988 29.2544C61.5781 27.5256 61.5781 25.5625 61.5781 25.5625C61.5781 25.06 61.4314 24.5725 61.1619 24.1577C61.1178 24.0897 61.1117 24.0039 61.1459 23.9308C61.1802 23.8577 61.2495 23.807 61.3297 23.7972C63.0214 23.59 64.2627 23.1142 65.0759 22.233C65.8883 21.3531 66.2656 20.0767 66.2656 18.2969C66.2656 17.0795 65.8531 16.0689 65.1889 15.257C65.1359 15.1928 65.1214 15.1052 65.1505 15.0273C65.4978 14.0889 65.585 12.9705 65.4322 12.0133C65.42 11.9514 65.383 11.897 65.33 11.8628C65.2761 11.8286 65.2105 11.8178 65.1481 11.8333C63.9678 12.1253 63.0383 12.5711 62.352 13.172C62.2883 13.2278 62.1992 13.2447 62.1191 13.2166C61.0925 12.8509 60.0017 12.6719 59 12.6719C57.9983 12.6719 56.9075 12.8509 55.8809 13.2166C55.8008 13.2447 55.7117 13.2278 55.648 13.172C54.9617 12.5711 54.0322 12.1253 52.8519 11.8333C52.7895 11.8178 52.7239 11.8286 52.67 11.8628C52.617 11.897 52.58 11.9514 52.5678 12.0133C52.415 12.9705 52.5022 14.0889 52.8495 15.0273C52.8786 15.1052 52.8641 15.1928 52.8111 15.257C52.1469 16.0689 51.7344 17.0795 51.7344 18.2969C51.7344 20.0763 52.1117 21.3531 52.9236 22.2325C53.7369 23.1137 54.9781 23.59 56.6698 23.7972C56.7505 23.807 56.8198 23.8577 56.8541 23.9308C56.8883 24.0044 56.8822 24.0902 56.8377 24.1577C56.5747 24.5617 56.4219 25.0445 56.4219 25.5625C56.4219 25.6511 56.3717 25.7327 56.2925 25.772C55.692 26.0725 54.912 26.1934 54.2755 26.1334C53.8137 26.0898 53.427 25.9459 53.2091 25.7284C52.6245 25.1434 52.752 24.8036 51.3702 23.8825C51.1137 23.7119 50.8906 23.6561 50.7036 23.6289C50.6717 23.6411 50.6464 23.6673 50.637 23.7011C50.6248 23.7419 50.6375 23.7855 50.6689 23.8136ZM61.7328 24.2153C61.9376 24.6306 62.0469 25.0909 62.0469 25.5625C62.0469 25.5625 62.0469 27.5228 62.0675 29.2516C62.0675 29.8028 62.3478 30.3161 62.8119 30.6142C63.2755 30.9123 63.8591 30.9541 64.3606 30.7248C68.8025 28.6886 71.8906 24.2022 71.8906 19C71.8906 11.8853 66.1147 6.10938 59 6.10938C51.8853 6.10938 46.1094 11.8853 46.1094 19C46.1094 24.2027 49.198 28.6891 53.6305 30.7441C54.1386 30.9761 54.7297 30.9339 55.1994 30.632C55.6695 30.3302 55.9531 29.8098 55.9531 29.2516V27.4788C55.5411 27.5917 55.0053 27.6719 54.3125 27.6719C52.8013 27.6719 51.7813 26.6791 51.2778 25.1678C51.1625 24.8219 50.7069 24.4366 50.3745 24.1788C50.3712 24.1764 50.3684 24.1736 50.3656 24.1713C50.1931 24.0231 50.1233 23.7883 50.1866 23.5703C50.2498 23.3523 50.435 23.1916 50.6595 23.1588C50.6806 23.1555 50.7022 23.1555 50.7233 23.1583C50.9741 23.1906 51.2773 23.2572 51.6298 23.4925C53.0605 24.4464 52.9353 24.7914 53.5409 25.3966C53.698 25.5541 53.9858 25.6351 54.3195 25.6666C54.8324 25.7148 55.452 25.6305 55.9569 25.4111C55.978 24.9836 56.0867 24.5791 56.2667 24.2153C54.6177 23.9678 53.4008 23.4405 52.5795 22.5508C51.7002 21.5983 51.2656 20.2239 51.2656 18.2969C51.2656 17.0125 51.6847 15.9377 52.3653 15.0644C52.0273 14.0777 51.9467 12.9255 52.1056 11.9345C52.1056 11.9322 52.1061 11.9298 52.1066 11.928C52.1427 11.7386 52.2552 11.5722 52.4173 11.4681C52.5795 11.3645 52.7773 11.3317 52.9644 11.3781C54.17 11.6762 55.1286 12.1309 55.8519 12.73C56.8925 12.3766 57.9898 12.2031 59 12.2031C60.0102 12.2031 61.1075 12.3766 62.1481 12.73C62.8714 12.1309 63.83 11.6762 65.0356 11.3781C65.2227 11.3317 65.4205 11.3645 65.5827 11.4681C65.7448 11.5722 65.8573 11.7386 65.8934 11.928L65.8944 11.9345C66.0533 12.9255 65.9727 14.0777 65.6347 15.0644C66.3153 15.9377 66.7344 17.0125 66.7344 18.2969C66.7344 20.2239 66.2998 21.5983 65.4205 22.5508C64.5987 23.4409 63.3819 23.9683 61.7328 24.2153Z" fill="black"/>
<defs>
<linearGradient id="paint0_linear_17_109" x1="59" y1="5.875" x2="59" y2="31.127" gradientUnits="userSpaceOnUse">
<stop stop-color="#D987C7"/>
<stop offset="1" stop-color="#F4BAFF"/>
</linearGradient>
</defs>
</svg>
